# xmcd CD database file
#
# Track frame offsets:
#	150
#	3596
#	22094
#	36618
#	54267
#	75797
#	91824
#	114822
#	135107
#	149146
#	168641
#	186174
#	199841
#	214404
#	230786
#
# Disc length: 3123 seconds
#
# Revision: 2
# Processed by: cddbd v1.5.2PL0 Copyright (c) Steve Scherf et al.
# Submitted via: CDex 1.51
#
DISCID=ce0c310f
DTITLE=Luke Haas - Hannergedanken?
DYEAR=2010
DGENRE=Country
TTITLE0=Enter Luke Haas
TTITLE1=E laange Wee
TTITLE2=Danz mat de Stären
TTITLE3=Wéi déif ass ënnen
TTITLE4=Hannergedanken?
TTITLE5=Ëmmer déi kleng
TTITLE6=Uh Kaka Du!
TTITLE7=Instead of a Prayer
TTITLE8=Hannerem Reebou
TTITLE9=Mama Äerd
TTITLE10=Geld régéiert d'Welt
TTITLE11=Meedche vun der Sauer
TTITLE12=Rock'n Roll
TTITLE13=Wat gelift?
TTITLE14=nët ze schwéier
EXTD=YEAR: 2010
EXTT0=
EXTT1=
EXTT2=
EXTT3=
EXTT4=
EXTT5=
EXTT6=
EXTT7=
EXTT8=
EXTT9=
EXTT10=
EXTT11=
EXTT12=
EXTT13=
EXTT14=
PLAYORDER=
